<svg width="20" height="20" viewBox="0 0 20 20" fill="none" xmlns="http://www.w3.org/2000/svg">
<g clip-path="url(#clip0_3101_14506)">
<path d="M8.33366 14.7155V16.6667C8.33366 17.5871 9.07985 18.3333 10.0003 18.3333C10.9208 18.3333 11.667 17.5871 11.667 16.6667V14.7155M10.0003 1.66667V2.50001M2.50033 10H1.66699M4.58366 4.58334L4.08358 4.08326M15.417 4.58334L15.9172 4.08326M18.3337 10H17.5003M15.0003 10C15.0003 12.7614 12.7618 15 10.0003 15C7.2389 15 5.00033 12.7614 5.00033 10C5.00033 7.23858 7.2389 5.00001 10.0003 5.00001C12.7618 5.00001 15.0003 7.23858 15.0003 10Z" stroke="white" stroke-width="1.5" stroke-linecap="round" stroke-linejoin="round"/>
</g>
<defs>
<clipPath id="clip0_3101_14506">
<rect width="20" height="20" fill="white"/>
</clipPath>
</defs>
</svg>
